<svg xmlns="http://www.w3.org/2000/svg" viewBox="0 0 220 220" role="img" aria-label="blob buddy"><rect x="12" y="12" width="196" height="196" rx="38" fill="#fff7d6" stroke="#8a5a24" stroke-width="7"/><path d="M44 139c0-48 31-85 70-80 39 4 68 38 62 83-5 38-36 54-70 54-35 0-62-17-62-57z" fill="#8ce65a" stroke="#184d45" stroke-width="7"/><circle cx="88" cy="115" r="9" fill="#17313a"/><circle cx="133" cy="115" r="9" fill="#17313a"/><path d="M91 145c13 13 34 13 48 0" fill="none" stroke="#17313a" stroke-width="6" stroke-linecap="round"/><path d="M70 67c-10-22 12-34 25-18M151 76c20-16 35 6 18 19" fill="none" stroke="#184d45" stroke-width="7" stroke-linecap="round"/></svg>
