<svg xmlns="http://www.w3.org/2000/svg" viewBox="0 0 220 220" role="img" aria-label="sparkly pastel glitter tornado">
  <path d="M49 46c50 22 96 22 139 0" fill="none" stroke="#9de8ff" stroke-width="24" stroke-linecap="round"/>
  <path d="M65 82c40 18 79 17 115-2" fill="none" stroke="#b388ff" stroke-width="22" stroke-linecap="round"/>
  <path d="M78 117c30 15 59 14 88-2" fill="none" stroke="#ff8bd1" stroke-width="20" stroke-linecap="round"/>
  <path d="M91 149c21 12 41 11 61-2" fill="none" stroke="#fff176" stroke-width="18" stroke-linecap="round"/>
  <path d="M104 175c10 7 20 7 30-1" fill="none" stroke="#67f2c4" stroke-width="16" stroke-linecap="round"/>
  <g fill="#fff"><path d="M32 103l7 14 14 7-14 7-7 14-7-14-14-7 14-7z"/><path d="M188 122l5 10 10 5-10 5-5 10-5-10-10-5 10-5z"/><circle cx="178" cy="66" r="7"/></g>
</svg>
