<svg xmlns="http://www.w3.org/2000/svg" viewBox="0 0 128 128" role="img" aria-label="Pauling surprised portrait">
  <rect width="128" height="128" rx="28" fill="#fff7d6"/>
  <circle cx="101" cy="28" r="17" fill="#6c8cff" opacity="0.95"/>
  <text x="101" y="36" text-anchor="middle" font-family="Trebuchet MS, Arial, sans-serif" font-size="25" font-weight="700" fill="#273469">!</text>
  <path d="M25 123 Q32 94 64 94 Q96 94 103 123" fill="#f7f7f0" stroke="#273469" stroke-width="4"/>
  <path d="M44 102 L64 121 L84 102" fill="none" stroke="#6c8cff" stroke-width="6" stroke-linecap="round"/>
  <circle cx="64" cy="59" r="38" fill="#f1c6a8" stroke="#273469" stroke-width="4"/>
  <path d="M31 52 Q38 15 67 20 Q94 22 98 53 Q80 37 58 39 Q43 39 31 52" fill="#d8d0c4"/>
  <g fill="none" stroke="#273469" stroke-width="4" stroke-linecap="round"><path d="M44 48 Q52 42 60 48"/><path d="M68 48 Q76 42 84 48"/></g>
  <g><circle cx="53" cy="62" r="7" fill="#13213a"/><circle cx="75" cy="62" r="7" fill="#13213a"/></g>
  <g fill="none" stroke="#273469" stroke-width="4"><circle cx="53" cy="62" r="13" fill="#d8fbff" opacity="0.38"/><circle cx="75" cy="62" r="13" fill="#d8fbff" opacity="0.38"/><path d="M66 62 H62"/></g>
  <ellipse cx="64" cy="78" rx="8" ry="10" fill="#5c2430"/>
</svg>