<svg xmlns="http://www.w3.org/2000/svg" viewBox="0 0 128 128" role="img" aria-label="Henry worried portrait">
  <rect width="128" height="128" rx="28" fill="#fff7d6"/>
  <circle cx="101" cy="28" r="17" fill="#7bdff2" opacity="0.95"/>
  <text x="101" y="36" text-anchor="middle" font-family="Trebuchet MS, Arial, sans-serif" font-size="25" font-weight="700" fill="#273469">⚠</text>
  <path d="M25 123 Q32 94 64 94 Q96 94 103 123" fill="#ffffff" stroke="#273469" stroke-width="4"/>
  <path d="M44 102 L64 121 L84 102" fill="none" stroke="#7bdff2" stroke-width="6" stroke-linecap="round"/>
  <circle cx="64" cy="59" r="38" fill="#ffd7a8" stroke="#273469" stroke-width="4"/>
  <path d="M31 52 Q38 15 67 20 Q94 22 98 53 Q80 37 58 39 Q43 39 31 52" fill="#5b2d12"/>
  <g fill="none" stroke="#273469" stroke-width="4" stroke-linecap="round"><path d="M44 50 Q52 56 60 51"/><path d="M68 51 Q76 56 84 50"/></g>
  <g><circle cx="53" cy="62" r="5" fill="#13213a"/><circle cx="75" cy="62" r="5" fill="#13213a"/><circle cx="55" cy="60" r="2" fill="#fff"/><circle cx="77" cy="60" r="2" fill="#fff"/></g>
  <g fill="none" stroke="#273469" stroke-width="4"><circle cx="53" cy="62" r="13" fill="#9de8ff" opacity="0.38"/><circle cx="75" cy="62" r="13" fill="#9de8ff" opacity="0.38"/><path d="M66 62 H62"/></g>
  <path d="M52 82 Q64 72 76 82" fill="none" stroke="#5c2430" stroke-width="5" stroke-linecap="round"/>
</svg>