<svg xmlns="http://www.w3.org/2000/svg" viewBox="0 0 220 280" role="img" aria-labelledby="title desc">
  <title id="title">Junior mad scientist</title>
  <desc id="desc">A smiling child scientist with goggles, gloves, and a friendly lab coat.</desc>
  <defs>
    <linearGradient id="hair" x1="0" x2="1"><stop offset="0" stop-color="#4b2f10"/><stop offset="1" stop-color="#7e2453"/></linearGradient>
  </defs>
  <ellipse cx="110" cy="254" rx="78" ry="16" fill="#10142f" opacity="0.25"/>
  <path d="M61 116c-20-33-1-78 49-78s70 45 49 78" fill="url(#hair)" stroke="#273469" stroke-width="7"/>
  <circle cx="110" cy="102" r="57" fill="#ffd7a8" stroke="#273469" stroke-width="7"/>
  <circle cx="86" cy="95" r="22" fill="#d8fbff" stroke="#273469" stroke-width="7"/>
  <circle cx="134" cy="95" r="22" fill="#d8fbff" stroke="#273469" stroke-width="7"/>
  <path d="M108 95h4" stroke="#273469" stroke-width="8" stroke-linecap="round"/>
  <circle cx="87" cy="98" r="6" fill="#273469"/>
  <circle cx="133" cy="98" r="6" fill="#273469"/>
  <path d="M92 124c14 12 30 12 44 0" fill="none" stroke="#7e2453" stroke-width="6" stroke-linecap="round"/>
  <path d="M54 162h112l22 94H32l22-94Z" fill="#fff7d6" stroke="#273469" stroke-width="7"/>
  <path d="M110 164v88" stroke="#273469" stroke-width="5"/>
  <path d="M68 174l-36 40" stroke="#273469" stroke-width="14" stroke-linecap="round"/>
  <path d="M152 174l34 38" stroke="#273469" stroke-width="14" stroke-linecap="round"/>
  <circle cx="30" cy="216" r="15" fill="#b388ff" stroke="#273469" stroke-width="5"/>
  <circle cx="190" cy="214" r="15" fill="#b388ff" stroke="#273469" stroke-width="5"/>
  <path d="M73 204h26v30H73z" fill="#9de8ff" stroke="#273469" stroke-width="5"/>
  <path d="M136 192l7 14 16 2-12 10 4 16-15-8-14 8 3-16-12-10 16-2 7-14Z" fill="#ff8bd1" stroke="#273469" stroke-width="4"/>
</svg>
