<svg xmlns="http://www.w3.org/2000/svg" viewBox="0 0 1024 640" role="img" aria-labelledby="title desc">
  <title id="title">Cartoon chemistry lab bench background</title>
  <desc id="desc">A cozy fantasy classroom lab with shelves, posters, and a wooden bench.</desc>
  <rect width="1024" height="640" fill="#232a62"/>
  <circle cx="190" cy="110" r="80" fill="#9de8ff" opacity="0.12"/>
  <circle cx="850" cy="126" r="100" fill="#ff8bd1" opacity="0.12"/>
  <rect x="62" y="74" width="258" height="116" rx="22" fill="#fff7d6" stroke="#273469" stroke-width="7"/>
  <text x="92" y="122" font-family="Trebuchet MS, sans-serif" font-size="29" font-weight="800" fill="#273469">Predict</text>
  <text x="98" y="160" font-family="Trebuchet MS, sans-serif" font-size="23" fill="#7e2453">then observe!</text>
  <rect x="708" y="72" width="248" height="126" rx="24" fill="#d8fbff" stroke="#273469" stroke-width="7"/>
  <text x="744" y="122" font-family="Trebuchet MS, sans-serif" font-size="25" font-weight="800" fill="#273469">Fictional</text>
  <text x="734" y="158" font-family="Trebuchet MS, sans-serif" font-size="25" font-weight="800" fill="#273469">ingredients</text>
  <rect x="0" y="506" width="1024" height="134" fill="#6d421c"/>
  <rect x="0" y="492" width="1024" height="34" fill="#c28b48"/>
  <path d="M0 526h1024" stroke="#4b2f10" stroke-width="8" opacity="0.45"/>
  <g fill="#fff5a8" opacity="0.85">
    <circle cx="480" cy="100" r="5"/><circle cx="526" cy="140" r="8"/><circle cx="612" cy="88" r="6"/>
    <path d="M418 174l6 13 15 1-12 10 4 15-13-8-13 8 3-15-11-10 15-1 6-13Z"/>
  </g>
</svg>
