<svg xmlns="http://www.w3.org/2000/svg" viewBox="0 0 640 180" role="img" aria-labelledby="title desc">
  <title id="title">Mad Flask Lab logo</title>
  <desc id="desc">A bright cartoon logo with bubbling flasks and playful lettering.</desc>
  <defs>
    <linearGradient id="bg" x1="0" x2="1" y1="0" y2="1">
      <stop offset="0" stop-color="#9de8ff"/>
      <stop offset="0.52" stop-color="#b388ff"/>
      <stop offset="1" stop-color="#ff8bd1"/>
    </linearGradient>
    <filter id="shadow" x="-20%" y="-20%" width="140%" height="140%">
      <feDropShadow dx="0" dy="8" stdDeviation="6" flood-color="#10142f" flood-opacity="0.45"/>
    </filter>
  </defs>
  <rect x="18" y="22" width="604" height="136" rx="38" fill="url(#bg)" filter="url(#shadow)"/>
  <path d="M96 48h38v38l44 48c11 12 2 31-14 31H66c-16 0-25-19-14-31l44-48V48Z" fill="#d8fbff" stroke="#273469" stroke-width="8"/>
  <path d="M84 114c17 9 42 9 62 0l29 34H54l30-34Z" fill="#67f2c4"/>
  <circle cx="95" cy="107" r="8" fill="#fff5a8"/>
  <circle cx="132" cy="99" r="10" fill="#ffffff" opacity="0.9"/>
  <circle cx="120" cy="70" r="7" fill="#ffffff" opacity="0.8"/>
  <text x="214" y="76" font-family="Trebuchet MS, Arial Rounded MT Bold, sans-serif" font-size="50" font-weight="900" fill="#fff7d6" stroke="#273469" stroke-width="8" paint-order="stroke">Mad Flask</text>
  <text x="286" y="132" font-family="Trebuchet MS, Arial Rounded MT Bold, sans-serif" font-size="54" font-weight="900" fill="#fff5a8" stroke="#273469" stroke-width="8" paint-order="stroke">Lab</text>
  <g fill="#fff7d6" stroke="#273469" stroke-width="4">
    <path d="M526 42l8 18 20 2-15 13 5 20-18-11-17 11 4-20-15-13 20-2 8-18Z"/>
    <circle cx="562" cy="122" r="14" fill="#72d6ff"/>
    <circle cx="589" cy="92" r="8" fill="#a8ffb0"/>
  </g>
</svg>
