<svg xmlns="http://www.w3.org/2000/svg" viewBox="0 0 260 240" role="img" aria-labelledby="title desc">
  <title id="title">Pauling calm science detective portrait</title>
  <desc id="desc">A calm notebook scientist studying clues with a magnifying glass.</desc>
  <defs>
    <linearGradient id="bg" x1="0" x2="1" y1="0" y2="1">
      <stop offset="0" stop-color="#d9f4ff"/>
      <stop offset=".55" stop-color="#9de8ff"/>
      <stop offset="1" stop-color="#235b72"/>
    </linearGradient>
    <linearGradient id="paper" x1="0" x2="1">
      <stop offset="0" stop-color="#fffdf2"/>
      <stop offset="1" stop-color="#fff5a8"/>
    </linearGradient>
  </defs>
  <rect x="16" y="18" width="228" height="204" rx="42" fill="url(#bg)"/>
  <path d="M39 69h58M35 102h39M164 49h52M179 185h36" stroke="#ffffff" stroke-width="5" stroke-linecap="round" opacity=".65"/>
  <g transform="translate(35 56)">
    <rect x="10" y="24" width="86" height="120" rx="10" fill="url(#paper)" stroke="#12384f" stroke-width="7"/>
    <path d="M25 52h51M25 75h43M25 98h54M25 121h32" stroke="#235b72" stroke-width="5" stroke-linecap="round"/>
    <path d="M83 42l10-8 4 12" fill="none" stroke="#ff8bd1" stroke-width="5" stroke-linecap="round" stroke-linejoin="round"/>
  </g>
  <g transform="translate(93 35)">
    <path d="M24 74c-5-31 16-56 48-56 33 0 54 25 49 56" fill="#f3d2a8" stroke="#12384f" stroke-width="8" stroke-linejoin="round"/>
    <path d="M16 82h112l18 111H-2z" fill="#ffffff" stroke="#12384f" stroke-width="8" stroke-linejoin="round"/>
    <path d="M35 101l34 41 36-41" fill="none" stroke="#9de8ff" stroke-width="10" stroke-linecap="round" stroke-linejoin="round"/>
    <path d="M32 43c10-25 62-35 82 0-23-8-50 0-82 0z" fill="#4b5563" stroke="#12384f" stroke-width="7" stroke-linejoin="round"/>
    <circle cx="54" cy="72" r="9" fill="#12384f"/><circle cx="91" cy="72" r="9" fill="#12384f"/>
    <path d="M63 92c9 6 18 6 28 0" stroke="#12384f" stroke-width="6" fill="none" stroke-linecap="round"/>
    <path d="M43 23c11-16 35-25 57-12" stroke="#ffffff" stroke-width="6" opacity=".8" stroke-linecap="round"/>
  </g>
  <g transform="translate(146 120) rotate(-10)">
    <circle cx="34" cy="34" r="30" fill="#d9f4ff" fill-opacity=".75" stroke="#12384f" stroke-width="8"/>
    <path d="M56 56l35 35" stroke="#12384f" stroke-width="12" stroke-linecap="round"/>
    <circle cx="24" cy="25" r="8" fill="#ffffff" opacity=".9"/>
    <path d="M20 41c13 8 29 8 42-2" stroke="#235b72" stroke-width="5" fill="none" stroke-linecap="round" opacity=".65"/>
  </g>
  <g fill="#12384f" opacity=".85">
    <circle cx="212" cy="61" r="5"/><circle cx="225" cy="82" r="4"/><circle cx="35" cy="181" r="5"/>
  </g>
</svg>
