<svg xmlns="http://www.w3.org/2000/svg" viewBox="0 0 260 240" role="img" aria-labelledby="title desc">
  <title id="title">Henry chaotic chemistry adventure portrait</title>
  <desc id="desc">A bubbly cartoon scientist holding a fizzing flask among colorful splashes.</desc>
  <defs>
    <radialGradient id="bg" cx="42%" cy="36%" r="70%">
      <stop offset="0" stop-color="#fff5a8"/>
      <stop offset="0.42" stop-color="#ff8bd1"/>
      <stop offset="1" stop-color="#7b2cbf"/>
    </radialGradient>
    <linearGradient id="flask" x1="0" x2="1" y1="0" y2="1">
      <stop offset="0" stop-color="#9de8ff"/>
      <stop offset="1" stop-color="#67f2c4"/>
    </linearGradient>
  </defs>
  <path d="M28 168C5 111 30 38 93 20c74-22 142 23 148 88 8 79-77 126-143 113-32-6-58-24-70-53z" fill="url(#bg)" opacity=".95"/>
  <g fill="none" stroke-linecap="round" stroke-linejoin="round">
    <path d="M31 80c18-18 34 16 52-3 16-17 26-42 54-25" stroke="#a8ffb0" stroke-width="10" opacity=".8"/>
    <path d="M176 46c22 8 20 34 48 33" stroke="#ffd166" stroke-width="9" opacity=".85"/>
    <path d="M44 181c24-12 35 13 61 1" stroke="#9de8ff" stroke-width="9" opacity=".75"/>
  </g>
  <g fill="#fff" opacity=".9">
    <circle cx="53" cy="61" r="10"/><circle cx="207" cy="116" r="9"/><circle cx="77" cy="200" r="7"/><circle cx="220" cy="174" r="13"/>
  </g>
  <g transform="translate(84 54)">
    <path d="M31 86h65l18 72H13z" fill="#ffffff" stroke="#273469" stroke-width="8" stroke-linejoin="round"/>
    <path d="M43 0h42v63c0 12 24 31 24 58 0 34-27 60-67 60S-9 155-9 121c0-27 40-46 40-58z" fill="#fff7e9" stroke="#273469" stroke-width="8" stroke-linejoin="round"/>
    <path d="M38 74c18 13 41-9 60 8 9 8 15 21 15 35 0 28-23 49-58 49S5 145 5 118c0-22 21-35 33-44z" fill="#8b5cf6" opacity=".9"/>
    <circle cx="29" cy="103" r="9" fill="#a8ffb0"/><circle cx="83" cy="98" r="7" fill="#ffde59"/><circle cx="59" cy="132" r="11" fill="#67f2c4"/>
    <path d="M42 11c10 12 31 12 43 0" stroke="#273469" stroke-width="8" fill="none" stroke-linecap="round"/>
    <circle cx="38" cy="45" r="12" fill="#273469"/><circle cx="82" cy="45" r="12" fill="#273469"/>
    <path d="M49 64c9 9 20 9 31 0" stroke="#273469" stroke-width="7" fill="none" stroke-linecap="round"/>
    <path d="M19 26C4 34-1 53 8 69M97 24c18 7 27 25 20 44" stroke="#273469" stroke-width="7" fill="none" stroke-linecap="round"/>
    <g transform="translate(117 86) rotate(15)">
      <path d="M12 0h19v33l24 45H-12l24-45z" fill="#fff" stroke="#273469" stroke-width="7" stroke-linejoin="round"/>
      <path d="M3 54h38l9 18H-6z" fill="url(#flask)"/>
      <circle cx="18" cy="48" r="5" fill="#fff5a8"/><circle cx="31" cy="62" r="4" fill="#fff"/>
    </g>
  </g>
  <path d="M215 36l8 18 19 5-17 10 2 20-15-13-19 7 8-18-13-15 20 2z" fill="#ffd166" stroke="#273469" stroke-width="5" stroke-linejoin="round"/>
</svg>
