<svg xmlns="http://www.w3.org/2000/svg" viewBox="0 0 160 190" role="img" aria-labelledby="title desc">
  <title id="title">Fizz Powder shaker pouch</title>
  <desc id="desc">A friendly fictional fizz powder pouch with popping bubbles for Mad Flask Lab.</desc>
  <defs><linearGradient id="pouch" x1="0" x2="1" y1="0" y2="1"><stop offset="0" stop-color="#fff9a8"/><stop offset="1" stop-color="#ffb84d"/></linearGradient></defs>
  <ellipse cx="79" cy="176" rx="50" ry="9" fill="#10142f" opacity=".22"/>
  <path d="M38 50c7-15 75-15 83 0l10 105c-15 21-88 21-103 0L38 50Z" fill="url(#pouch)" stroke="#273469" stroke-width="8" stroke-linejoin="round"/>
  <path d="M45 45c13 9 58 11 72 0l5 22c-22 9-55 9-82 0l5-22Z" fill="#ffffff" stroke="#273469" stroke-width="7" stroke-linejoin="round"/>
  <path d="M45 88c24 11 48 11 72 0v43c-18 12-54 12-72 0V88Z" fill="#ffe45c" stroke="#273469" stroke-width="5"/>
  <path d="M61 115l15-20 7 14 16-6-10 20 12 12-23-3-14 12 2-20-17-8 12-1Z" fill="#273469"/>
  <circle cx="34" cy="33" r="8" fill="#ffffff" stroke="#273469" stroke-width="5"/><circle cx="126" cy="27" r="6" fill="#ffffff" stroke="#273469" stroke-width="5"/><circle cx="103" cy="16" r="4" fill="#ffe45c" stroke="#273469" stroke-width="4"/>
  <path d="M24 72l-8-8m122 15l10-6M80 22V8" stroke="#273469" stroke-width="6" stroke-linecap="round"/>
  <text x="80" y="159" font-family="Trebuchet MS, sans-serif" font-size="13" font-weight="900" text-anchor="middle" fill="#273469">Fizz</text>
</svg>
