<svg xmlns="http://www.w3.org/2000/svg" viewBox="0 0 160 190" role="img" aria-labelledby="title desc">
  <title id="title">Glimmer Salt crystal jar</title>
  <desc id="desc">A friendly fictional crystal jar filled with glimmer salt sparkles.</desc>
  <defs><linearGradient id="jar" x1="0" x2="1" y1="0" y2="1"><stop offset="0" stop-color="#ffffff"/><stop offset="1" stop-color="#cce8ff"/></linearGradient></defs>
  <ellipse cx="80" cy="177" rx="50" ry="9" fill="#10142f" opacity=".22"/>
  <path d="M43 48h74l10 111c-14 19-80 19-94 0L43 48Z" fill="url(#jar)" stroke="#273469" stroke-width="8" stroke-linejoin="round"/>
  <rect x="49" y="22" width="62" height="30" rx="10" fill="#fff7d6" stroke="#273469" stroke-width="7"/>
  <path d="M43 115c19 12 55 12 74 0v39c-18 13-56 13-74 0v-39Z" fill="#f7fbff" stroke="#273469" stroke-width="5"/>
  <path d="M57 143l12-31 12 31H57Zm27 6l17-42 18 42H84Zm-48 0l14-35 14 35H36Z" fill="#8ee7ff" stroke="#273469" stroke-width="5" stroke-linejoin="round"/>
  <path d="M27 76l6-10 6 10 10 6-10 6-6 10-6-10-10-6 10-6Zm103-20l5-8 5 8 8 5-8 5-5 8-5-8-8-5 8-5Z" fill="#fff2a8" stroke="#273469" stroke-width="4" stroke-linejoin="round"/>
  <text x="80" y="163" font-family="Trebuchet MS, sans-serif" font-size="12" font-weight="900" text-anchor="middle" fill="#273469">Salt</text>
</svg>
