<svg xmlns="http://www.w3.org/2000/svg" viewBox="0 0 160 190" role="img" aria-labelledby="title desc">
  <title id="title">Goo Gel squishy tube</title>
  <desc id="desc">A fictional squishy goo gel tube with rounded drips.</desc>
  <defs><linearGradient id="goo" x1="0" x2="1" y1="0" y2="1"><stop offset="0" stop-color="#b7ffe8"/><stop offset="1" stop-color="#28d68c"/></linearGradient></defs>
  <ellipse cx="80" cy="177" rx="48" ry="9" fill="#10142f" opacity=".22"/>
  <path d="M47 31c22-12 54-12 76 0l-15 137c-17 11-47 11-64 0L47 31Z" fill="url(#goo)" stroke="#273469" stroke-width="8" stroke-linejoin="round"/>
  <path d="M47 31c19 13 57 13 76 0" fill="none" stroke="#273469" stroke-width="8" stroke-linecap="round"/>
  <path d="M43 92c22 12 55 12 76 0l-6 51c-17 14-50 14-67 0l-3-51Z" fill="#48f0b3" stroke="#273469" stroke-width="5"/>
  <path d="M62 96v30c0 8 13 8 13 0v-14c0-8 14-8 14 0v25c0 9 15 9 15 0V95" fill="#273469" opacity=".95"/>
  <circle cx="65" cy="73" r="8" fill="#ffffff" opacity=".85"/><circle cx="96" cy="58" r="6" fill="#ffffff" opacity=".85"/>
  <path d="M34 147c-14 12-2 24 10 15m82-17c16 10 6 24-8 16" fill="none" stroke="#273469" stroke-width="7" stroke-linecap="round"/>
  <text x="80" y="160" font-family="Trebuchet MS, sans-serif" font-size="12" font-weight="900" text-anchor="middle" fill="#273469">Goo</text>
</svg>
