<svg xmlns="http://www.w3.org/2000/svg" viewBox="0 0 160 190" role="img" aria-labelledby="title desc">
  <title id="title">Sour Drops droplet bottle</title>
  <desc id="desc">A fictional droplet-shaped sour drops bottle with splash marks.</desc>
  <defs><linearGradient id="drop" x1="0" x2="1" y1="0" y2="1"><stop offset="0" stop-color="#dff8ff"/><stop offset="1" stop-color="#49bfff"/></linearGradient></defs>
  <ellipse cx="80" cy="176" rx="45" ry="9" fill="#10142f" opacity=".22"/>
  <path d="M80 22c-34 36-52 62-52 94 0 36 23 59 52 59s52-23 52-59c0-32-18-58-52-94Z" fill="url(#drop)" stroke="#273469" stroke-width="8" stroke-linejoin="round"/>
  <rect x="60" y="11" width="40" height="23" rx="9" fill="#fff7d6" stroke="#273469" stroke-width="7"/>
  <path d="M43 115c19 11 55 11 74 0v31c-16 17-58 17-74 0v-31Z" fill="#56d7ff" stroke="#273469" stroke-width="5"/>
  <path d="M66 118c8 9 20 9 28 0 4 17-2 28-14 28s-18-11-14-28Z" fill="#273469"/>
  <path d="M23 75l-13-8m130 2l12-10M28 43l-8-13m116 28l13-4" stroke="#273469" stroke-width="6" stroke-linecap="round"/>
  <circle cx="57" cy="82" r="7" fill="#fff" opacity=".85"/><circle cx="98" cy="66" r="5" fill="#fff" opacity=".85"/>
  <text x="80" y="160" font-family="Trebuchet MS, sans-serif" font-size="12" font-weight="900" text-anchor="middle" fill="#273469">Drops</text>
</svg>
